<?xml version="1.0" encoding="utf-8"?>
<!-- Generator: Adobe Illustrator 15.0.0, SVG Export Plug-In  -->
<!DOCTYPE svg [
	<!ENTITY ns_flows "http://ns.adobe.com/Flows/1.0/">
]>
<svg version="1.2" baseProfile="tiny"
	 xmlns="http://www.w3.org/2000/svg" xmlns:xlink="http://www.w3.org/1999/xlink" xmlns:a="http://ns.adobe.com/AdobeSVGViewerExtensions/3.0/"
	 x="0px" y="0px" width="139px" height="71px" viewBox="-2.002 -3.331 139 71" xml:space="preserve">
<defs>
</defs>
<path fill="#FFD042" d="M34.898,61.272H34.85c-9.866,0-19.417-7.653-22.122-10.008c-5.029-0.149-8.66-1.452-10.803-3.879
	c-1.922-2.178-1.96-4.511-1.915-5.258V20.319c0-6.945,12.838-7.751,17.678-7.806L43.348,0l24.021,0.642
	c0.652-0.016,2.121-0.002,14.949,8.139l42.202,0.833c6.207,0,8.478,4.973,8.478,8.316v2.363c0,5.301-5.1,7.226-8.527,7.226H69.752
	v20.011c0,10.376-12.414,13.118-18.979,13.118L34.898,61.272z M44.438,5.031L18.85,17.509l-0.577,0
	c-6.717,0.005-12.906,1.543-13.262,2.798l-0.02,22.221c0.003,0.011-0.015,0.815,0.763,1.636c1.292,1.362,4.115,2.113,7.949,2.115
	l0.992,0.001l0.722,0.68c0.098,0.092,9.988,9.282,19.387,9.313l15.873-0.623c0.234-0.002,14.076-0.132,14.076-8.12V22.519h59.719
	c0.348-0.004,3.527-0.104,3.527-2.226V17.93c-0.022-0.979-0.412-3.316-3.527-3.316l-43.653-0.861l-0.592-0.377
	c-5.268-3.354-11.691-7.188-13.218-7.743L44.438,5.031z"/>
<path fill="#FFFFFF" d="M49.322,24.397c0,0-5,0-5,5v2.5c0,0,0,5,5,5h31.359c0,0,5,0,5-5v-2.5c0,0,0-5-5-5H49.322z"/>
<path fill="#FFD042" d="M80.682,39.397H49.322c-5.503,0-7.5-4.485-7.5-7.5v-2.5c0-5.502,4.485-7.5,7.5-7.5h31.359
	c5.503,0,7.5,4.485,7.5,7.5v2.5C88.182,37.4,83.696,39.397,80.682,39.397z M49.322,26.897c-1.124,0.029-2.5,0.486-2.5,2.5v2.5
	c0.029,1.125,0.486,2.5,2.5,2.5h31.339c1.152-0.031,2.521-0.492,2.521-2.5v-2.5c-0.029-1.125-0.486-2.5-2.5-2.5H49.322z"/>
<path fill="#FFFFFF" d="M47.574,37.168c0,0-4,0-4,4v3.959c0,0,0,4,4,4h31.865c0,0,4,0,4-4v-3.959c0,0,0-4-4-4H47.574z"/>
<path fill="#FFD042" d="M79.439,51.627H47.574c-4.769,0-6.5-3.887-6.5-6.5v-3.959c0-4.769,3.887-6.5,6.5-6.5h31.865
	c4.769,0,6.5,3.887,6.5,6.5v3.959C85.939,49.896,82.053,51.627,79.439,51.627z M47.574,39.668c-1.5,0.052-1.5,1.066-1.5,1.5v3.959
	c0.052,1.5,1.066,1.5,1.5,1.5h31.839c1.526-0.057,1.526-1.067,1.526-1.5v-3.959c-0.052-1.5-1.066-1.5-1.5-1.5H47.574z"/>
<path fill="#FFFFFF" d="M46.827,49.958c0,0-4,0-4,4v3.379c0,0,0,4,4,4H72.71c0,0,4,0,4-4v-3.379c0,0,0-4-4-4H46.827z"/>
<path fill="#FFD042" d="M72.71,63.837H46.827c-4.769,0-6.5-3.887-6.5-6.5v-3.379c0-4.769,3.887-6.5,6.5-6.5H72.71
	c4.769,0,6.5,3.887,6.5,6.5v3.379C79.21,62.105,75.323,63.837,72.71,63.837z M46.827,52.458c-1.5,0.052-1.5,1.066-1.5,1.5v3.379
	c0.052,1.5,1.066,1.5,1.5,1.5h25.856c1.526-0.057,1.526-1.067,1.526-1.5v-3.379c-0.052-1.5-1.066-1.5-1.5-1.5H46.827z"/>
<polygon fill="#FFFFFF" points="78.914,14.931 72.186,21.633 81.376,28.079 88.104,21.376 "/>
<path fill="#FFD042" d="M83.258,29.386c-1.768,0-3.382-0.458-4.438-0.955c-0.078-0.037-0.154-0.078-0.229-0.123
	c-10.852-6.557-15.284-9.304-17.154-10.516l-9.561,3.34c-1.302,0.458-2.729-0.232-3.185-1.535c-0.455-1.304,0.232-2.729,1.536-3.185
	l10.732-3.75c0.838-0.293,1.763-0.117,2.434,0.446c1.145,0.818,11.323,7.016,17.646,10.837c0.624,0.259,3.519,1.298,5.184-1.052
	l1.531-2.164c0.017-0.027,1.108-1.714,0.284-2.799C87,17.212,82.122,14.49,81.42,14.159c-1.249-0.588-1.784-2.078-1.196-3.327
	c0.589-1.248,2.078-1.787,3.327-1.195c0.064,0.03,7.088,3.727,8.072,4.796c2.957,3.206,1.446,7.392,0.233,9.157l-1.552,2.194
	C88.354,28.538,85.664,29.386,83.258,29.386z"/>
</svg>
