<?xml version="1.0" encoding="utf-8"?>
<!-- Generator: Adobe Illustrator 15.0.0, SVG Export Plug-In  -->
<!DOCTYPE svg [
	<!ENTITY ns_flows "http://ns.adobe.com/Flows/1.0/">
]>
<svg version="1.2" baseProfile="tiny"
	 xmlns="http://www.w3.org/2000/svg" xmlns:xlink="http://www.w3.org/1999/xlink" xmlns:a="http://ns.adobe.com/AdobeSVGViewerExtensions/3.0/"
	 x="0px" y="0px" width="309px" height="124px" viewBox="-12.144 -7.407 309 124" xml:space="preserve">
<defs>
</defs>
<path fill="#14214A" d="M0,56.259c3.537-0.632,8.147-0.947,12.947-0.947c8.147,0,13.452,1.516,17.494,4.547
	c4.421,3.284,7.2,8.463,7.2,16.042c0,8.146-2.969,13.768-7.011,17.241c-4.484,3.727-11.368,5.495-19.705,5.495
	c-4.989,0-8.589-0.316-10.926-0.632V56.259z M9.6,90.932c0.821,0.189,2.21,0.189,3.347,0.189
	c8.779,0.063,14.526-4.737,14.526-14.905c0-8.842-5.179-13.516-13.515-13.516c-2.084,0-3.537,0.189-4.358,0.379V90.932z"/>
<path fill="#14214A" d="M63.216,98.889c-12.568,0-20.021-9.536-20.021-21.662c0-12.758,8.21-22.294,20.715-22.294
	c13.073,0,20.21,9.789,20.21,21.536c0,14.021-8.4,22.42-20.842,22.42H63.216z M63.722,91.247c6.505,0,10.231-6.126,10.231-14.463
	c0-7.642-3.6-14.21-10.231-14.21s-10.358,6.442-10.358,14.399c0,8.021,3.853,14.273,10.294,14.273H63.722z"/>
<path fill="#14214A" d="M100.033,55.627h9.6v26.904c0,12.126-5.81,16.357-15.094,16.357c-2.273,0-5.179-0.379-7.073-1.01
	l1.074-7.769c1.326,0.442,3.031,0.758,4.926,0.758c4.042,0,6.568-1.831,6.568-8.399V55.627z"/>
<path fill="#14214A" d="M128.704,87.269l-2.968,10.926h-9.979l13.01-42.567h12.568l13.263,42.567H144.24l-3.284-10.926H128.704z
	 M139.503,80.068l-2.652-9.031c-0.695-2.526-1.453-5.747-2.084-8.21h-0.189c-0.568,2.526-1.263,5.747-1.895,8.21l-2.589,9.031
	H139.503z"/>
<path fill="#14214A" d="M161.542,56.259c3.537-0.632,8.147-0.947,12.947-0.947c8.147,0,13.452,1.516,17.494,4.547
	c4.421,3.284,7.2,8.463,7.2,16.042c0,8.146-2.969,13.768-7.011,17.241c-4.484,3.727-11.368,5.495-19.705,5.495
	c-4.989,0-8.589-0.316-10.926-0.632V56.259z M171.142,90.932c0.821,0.189,2.21,0.189,3.347,0.189
	c8.779,0.063,14.526-4.737,14.526-14.905c0-8.842-5.179-13.516-13.515-13.516c-2.084,0-3.537,0.189-4.358,0.379V90.932z"/>
<path fill="#14214A" d="M234.421,110.067c-1.832,1.264-4.168,1.958-6.821,1.958c-4.105,0-6.568-2.147-6.568-5.873
	c0-3.601,2.4-6.442,4.484-7.958h-18.694V55.627h26.21v7.895h-16.61v8.842h15.663v7.832h-15.663V90.3h17.494v7.895
	c-0.505,0-1.01,0-1.579,0c-2.084,1.39-4.294,3.727-4.294,5.811c0,1.263,0.947,2.021,2.4,2.021c0.821,0,1.768-0.126,2.652-0.505
	L234.421,110.067z"/>
<path fill="#FFD042" d="M131.832,0c0,0-6,0-6,6v31c0,0,0,6,6,6h95.396c0,0,6,0,6-6V6c0,0,0-6-6-6H131.832z"/>
<path fill="#14214A" d="M216.511,18.777h-9.922v-3.632h10.537V10.17h-17.959v22.66H217.7v-4.977h-11.11v-4.169h9.922V18.777z
	 M178.462,32.83h7.422V10.17h-7.422V32.83z M148.125,32.83v-5.581c0-3.664-0.082-7.061-0.287-10.12h0.164
	c1.312,2.724,3.115,5.783,4.633,8.17l4.715,7.531h7.79V10.17h-6.765v5.379c0,3.362,0.164,6.523,0.573,9.515h-0.123
	c-1.229-2.655-2.829-5.682-4.346-7.935l-4.388-6.959h-8.732v22.66H148.125z"/>
<path fill="#14214A" d="M291.569,42.894v-7.811l-22.64-21.94h21.166l-8.825-8.569h-27.451v26.591l8.887,8.627V19.243l20.445,19.85
	l-0.879,0.709c-0.116,0.094-11.739,9.516-18.192,18.283c-1.514,2.055-2.633,3.928-3.329,5.566c-0.197,1.02-0.355,2.318-0.47,3.863
	c-0.013,0.357-0.037,8.002-0.053,13.627h10.185c0.001-12.496,0.016-12.641,0.021-12.703c0.234-2.287,0.673-3.762,1.374-4.605
	c1.492-4.051,15.123-16.572,17.896-19.092L291.569,42.894z"/>
<path fill="#14214A" d="M261.187,97.745c1.263,1.283,2.82,1.907,4.761,1.907c1.943,0,3.521-0.627,4.821-1.916
	c1.295-1.285,1.925-2.89,1.925-4.904c0-2.013-0.63-3.617-1.926-4.905c-1.301-1.288-2.878-1.915-4.82-1.915
	c-1.939,0-3.497,0.624-4.761,1.907c-1.267,1.288-1.882,2.896-1.882,4.913C259.305,94.852,259.92,96.459,261.187,97.745z"/>
<path fill="#14214A" d="M97.836,19.955L111.919,1.83h-11.873l-9.599,14.146c-1.011,1.516-2.021,3.032-2.968,4.674h-0.127V1.83
	h-9.536v42.564h9.536V30.501l3.6-4.483l10.483,18.377h11.178L97.836,19.955z"/>
<path fill="#14214A" d="M7.201,10.83h5.567v17.84c0,6.567-2.526,8.398-6.568,8.398c-1.894,0-3.599-0.315-4.926-0.758l-1.073,7.768
	C2.095,44.711,5,45.09,7.274,45.09c9.283,0,15.093-4.232,15.093-16.357V1.83H7.201V10.83z"/>
<path fill="#14214A" d="M41.565,1.83L28.556,44.395h9.978l2.968-10.925h12.251l3.284,10.925h10.357L54.132,1.83H41.565z
	 M42.891,26.27l2.59-9.031c0.631-2.462,1.326-5.683,1.894-8.209h0.19c0.631,2.463,1.389,5.684,2.084,8.209l2.652,9.031H42.891z"/>
</svg>
