<?xml version="1.0" encoding="utf-8"?>
<!-- Generator: Adobe Illustrator 15.0.0, SVG Export Plug-In  -->
<!DOCTYPE svg PUBLIC "-//W3C//DTD SVG 1.1 Basic//EN" "http://www.w3.org/Graphics/SVG/1.1/DTD/svg11-basic.dtd" [
	<!ENTITY ns_flows "http://ns.adobe.com/Flows/1.0/">
]>
<svg version="1.1" baseProfile="basic"
	 xmlns="http://www.w3.org/2000/svg" xmlns:xlink="http://www.w3.org/1999/xlink" xmlns:a="http://ns.adobe.com/AdobeSVGViewerExtensions/3.0/"
	 x="0px" y="0px" width="2004px" height="2272px" viewBox="-16.563 -19.983 2004 2272"
	 enable-background="new -16.563 -19.983 2004 2272" xml:space="preserve">
<defs>
</defs>
<line fill="none" stroke="#FFD042" stroke-width="6" stroke-linecap="round" stroke-linejoin="round" stroke-dasharray="0,17.601" x1="639.399" y1="175.436" x2="757.637" y2="293.674"/>
<path fill="none" stroke="#FFD042" stroke-width="6" stroke-linecap="round" stroke-linejoin="round" d="M763.86,299.896
	L763.86,299.896 M626.953,162.989L626.953,162.989"/>
<g>
	<defs>
		<rect id="SVGID_8_" y="0.001" width="2004.952" height="2231.757"/>
	</defs>
	<clipPath id="SVGID_23_">
		<use xlink:href="#SVGID_8_"  overflow="visible"/>
	</clipPath>
</g>
<line fill="none" stroke="#FFD042" stroke-width="6" stroke-linecap="round" stroke-linejoin="round" stroke-dasharray="0,17.93" x1="58.93" y1="1021" x2="803.035" y2="1021"/>
<path fill="none" stroke="#FFD042" stroke-width="6" stroke-linecap="round" stroke-linejoin="round" d="M812,1021L812,1021
	 M41,1021L41,1021"/>
<g>
	<defs>
		<rect id="SVGID_6_" y="0.001" width="2004.952" height="2231.757"/>
	</defs>
	<clipPath id="SVGID_27_">
		<use xlink:href="#SVGID_6_"  overflow="visible"/>
	</clipPath>
	<path clip-path="url(#SVGID_27_)" fill="#FFD042" d="M704.926,954.096c-0.896,0.009-5.404,0.322-5.41,5.402l0.006,32.435
		c0.123,3.156,0.316,5.408,5.404,5.408l21.613-0.007c2.484-0.187,5.336,0.404,5.411-5.401l0.006-32.435
		c-0.012-0.885-0.327-5.402-5.405-5.402H704.926z M726.545,1000.947l-21.619-0.009c-7.734,0.032-7.734,0.032-8.028-8.978
		l-0.983-32.463c0.006-7.123,5.897-9.008,9.012-9.008l21.619,0.008c7.133-0.008,9.012,5.888,9.006,9.006l-1.029,32.457
		C734.023,1000.971,734.913,1000.777,726.545,1000.947"/>
	<path clip-path="url(#SVGID_27_)" fill="#FFD042" d="M703.252,987.307c0-1.672,1.347-3.021,3.021-3.021
		c1.658,0,3.017,1.358,3.017,2.49c0,0,0,0.521-0.002,1.045c-0.005,1.155-1.351,2.505-3.015,2.51
		C704.604,990.325,703.252,988.973,703.252,987.307"/>
	<path clip-path="url(#SVGID_27_)" fill="#FFD042" d="M722.481,987.307c-0.005-1.669,1.341-3.02,3.01-3.014
		c1.669-0.008,3.017,1.342,3.017,2.491c0,0,0,0.522,0,1.044c0.006,1.147-1.348,2.497-3.017,2.494
		C723.834,990.325,722.477,988.976,722.481,987.307"/>
	<path clip-path="url(#SVGID_27_)" fill="#FFD042" d="M707.485,962.13c0,0-3.296-0.006-3.296,3.581l-0.006,8.797
		c0,0-0.002,0.522-0.002,1.045c0,3.056,0,3.056,3.304,3.056l16.501,0.002c0,0,3.303-0.005,3.297-3.574l0.006-8.8v-1.045
		c0-3.062,0-3.062-3.309-3.062H707.485z"/>
	<path clip-path="url(#SVGID_27_)" fill="#FFD042" d="M707.789,957.445c-1.663-0.009-3.547,0.387-3.6,1.631v0.428
		c0,0,0,1.005,1.316,1.005h20.46c0,0,1.317,0,1.317-0.507c0,0,0-0.504,0.029-0.549c0.029-0.047,0.029-0.047-0.023-0.528
		c-0.064-0.478-0.826-1.456-3.004-1.47C724.285,957.455,708.809,957.455,707.789,957.445"/>
	<path clip-path="url(#SVGID_27_)" fill="#FFD042" d="M723.242,1005.368c0,0,0,1.087,1.324,1.087h2.336c0,0,1.318,0.002,1.318-1.087
		v-5.876c0,0,0-1.08-1.318-1.089l-2.342,0.006c0,0-1.318-0.006-1.318,1.089V1005.368z"/>
	<path clip-path="url(#SVGID_27_)" fill="#FFD042" d="M703.245,1005.374c0,0,0.006,1.081,1.324,1.083l2.343-0.002
		c0,0,1.316,0.006,1.316-1.087l0.007-5.876c0-1.083,0-1.083-1.323-1.089l-2.343,0.009c0,0-1.318-0.009-1.318,0.564
		c0,0,0,0.521,0,1.044L703.245,1005.374z"/>
	<path clip-path="url(#SVGID_27_)" fill="#FFD042" d="M1228.396,956.677v-6.354c0-0.546,0.086-0.973,0.259-1.283
		c0.173-0.312,0.409-0.467,0.708-0.467c0.258,0,0.437,0.096,0.536,0.286s0.149,0.649,0.149,1.375v6.443h2.663v-6.354
		c0-0.546,0.087-0.973,0.26-1.283c0.172-0.312,0.411-0.467,0.716-0.467c0.252,0,0.429,0.096,0.532,0.286
		c0.102,0.19,0.153,0.649,0.153,1.375v6.443h2.716v-7.093c0-1.144-0.175-1.976-0.523-2.496c-0.348-0.522-0.9-0.782-1.656-0.782
		c-0.498,0-0.938,0.114-1.322,0.342c-0.385,0.229-0.729,0.584-1.033,1.063c-0.182-0.456-0.441-0.805-0.778-1.045
		s-0.737-0.36-1.199-0.36c-0.51,0-0.953,0.112-1.327,0.338c-0.375,0.226-0.715,0.582-1.02,1.067v-1.203h-2.514v10.169H1228.396z
		 M1220.925,946.508v6.354c0,0.551-0.089,0.979-0.269,1.283c-0.179,0.305-0.426,0.458-0.742,0.458c-0.27,0-0.457-0.099-0.563-0.295
		s-0.158-0.702-0.158-1.517v-6.283h-2.848v7.093c0,1.13,0.185,1.96,0.554,2.487s0.946,0.791,1.731,0.791
		c0.532,0,0.996-0.113,1.389-0.338c0.393-0.227,0.747-0.582,1.063-1.068v1.204h2.663v-10.169H1220.925z M1212.944,956.677v-4.878
		c0-0.938,0.089-1.568,0.269-1.891c0.179-0.322,0.496-0.482,0.953-0.482c0.117,0,0.247,0.009,0.392,0.025
		c0.143,0.019,0.294,0.045,0.452,0.08v-3.226c-0.47,0.047-0.89,0.202-1.262,0.465c-0.371,0.265-0.713,0.651-1.023,1.161v-1.424
		h-2.61v10.169H1212.944z M1200.956,956.677h2.628v-1.116c0.27,0.457,0.598,0.805,0.984,1.045c0.387,0.241,0.82,0.361,1.301,0.361
		c0.527,0,0.979-0.118,1.354-0.352c0.375-0.234,0.668-0.58,0.879-1.037c0.123-0.27,0.214-0.686,0.272-1.248s0.087-1.377,0.087-2.443
		c0-2.297-0.192-3.807-0.579-4.531c-0.387-0.724-1.081-1.086-2.083-1.086c-0.428,0-0.805,0.096-1.129,0.286
		c-0.325,0.19-0.617,0.485-0.875,0.883v-4.297h-2.839V956.677z M1205.386,949.201c0.129,0.342,0.193,1.232,0.193,2.668v0.272
		c0,1.072-0.062,1.757-0.185,2.056s-0.343,0.448-0.659,0.448c-0.375,0-0.634-0.196-0.778-0.588
		c-0.144-0.394-0.215-1.427-0.215-3.103c0-0.861,0.069-1.455,0.206-1.78c0.138-0.325,0.374-0.488,0.708-0.488
		C1205.014,948.687,1205.257,948.858,1205.386,949.201 M1185.619,956.677v-6.354c0-0.546,0.086-0.973,0.26-1.283
		c0.172-0.312,0.408-0.467,0.707-0.467c0.258,0,0.437,0.096,0.537,0.286c0.099,0.19,0.148,0.649,0.148,1.375v6.443h2.663v-6.354
		c0-0.546,0.087-0.973,0.259-1.283c0.173-0.312,0.412-0.467,0.717-0.467c0.252,0,0.43,0.096,0.531,0.286
		c0.104,0.19,0.154,0.649,0.154,1.375v6.443h2.716v-7.093c0-1.144-0.174-1.976-0.523-2.496c-0.349-0.522-0.9-0.782-1.656-0.782
		c-0.498,0-0.939,0.114-1.322,0.342c-0.384,0.229-0.729,0.584-1.033,1.063c-0.182-0.456-0.44-0.805-0.778-1.045
		c-0.337-0.24-0.736-0.36-1.199-0.36c-0.51,0-0.952,0.112-1.327,0.338s-0.716,0.582-1.02,1.067v-1.203h-2.514v10.169H1185.619z
		 M1178.148,946.508v6.354c0,0.551-0.089,0.979-0.268,1.283c-0.18,0.305-0.426,0.458-0.743,0.458c-0.27,0-0.457-0.099-0.563-0.295
		s-0.157-0.702-0.157-1.517v-6.283h-2.849v7.093c0,1.13,0.185,1.96,0.554,2.487s0.946,0.791,1.731,0.791
		c0.533,0,0.996-0.113,1.389-0.338c0.392-0.227,0.747-0.582,1.063-1.068v1.204h2.663v-10.169H1178.148z M1170.168,956.677v-4.878
		c0-0.938,0.09-1.568,0.269-1.891c0.178-0.322,0.496-0.482,0.953-0.482c0.116,0,0.248,0.009,0.391,0.025
		c0.144,0.019,0.295,0.045,0.453,0.08v-3.226c-0.469,0.047-0.889,0.202-1.261,0.465c-0.373,0.265-0.715,0.651-1.024,1.161v-1.424
		h-2.61v10.169H1170.168z M1160.86,956.677c1.078,0,1.875-0.076,2.39-0.229c0.517-0.151,0.95-0.412,1.301-0.781
		c0.369-0.381,0.656-0.842,0.863-1.381c0.204-0.539,0.307-1.109,0.307-1.713c0-0.732-0.152-1.361-0.457-1.886
		s-0.76-0.938-1.362-1.244c0.51-0.433,0.88-0.879,1.112-1.336c0.23-0.457,0.347-0.978,0.347-1.563c0-0.656-0.125-1.226-0.374-1.705
		c-0.249-0.48-0.615-0.867-1.104-1.16c-0.327-0.194-0.715-0.331-1.163-0.413s-1.188-0.123-2.22-0.123h-3.401v13.535H1160.86z
		 M1160.263,950.77h0.22c0.709,0,1.227,0.134,1.557,0.4c0.327,0.267,0.491,0.687,0.491,1.262c0,0.615-0.167,1.078-0.501,1.388
		c-0.334,0.312-0.832,0.466-1.494,0.466h-0.272V950.77z M1160.271,945.373c0.029-0.006,0.066-0.01,0.113-0.013
		c0.048-0.003,0.115-0.005,0.203-0.005c0.545,0,0.963,0.128,1.257,0.383c0.293,0.256,0.439,0.619,0.439,1.094
		c0,0.545-0.147,0.949-0.444,1.209c-0.295,0.261-0.754,0.392-1.375,0.392h-0.202L1160.271,945.373z"/>
</g>
<line fill="none" stroke="#FFD042" stroke-width="6" stroke-linecap="round" stroke-linejoin="round" stroke-dasharray="0,18.114" x1="40.98" y1="1651.887" x2="40.98" y2="1045.057"/>
<path fill="none" stroke="#FFD042" stroke-width="6" stroke-linecap="round" stroke-linejoin="round" d="M40.98,1036L40.98,1036
	 M40.98,1670L40.98,1670"/>
<line fill="none" stroke="#FFD042" stroke-width="6" stroke-linecap="round" stroke-linejoin="round" stroke-dasharray="0,18.99" x1="628.116" y1="137.585" x2="594.547" y2="171.155"/>
<path fill="none" stroke="#FFD042" stroke-width="6" stroke-linecap="round" stroke-linejoin="round" d="M587.832,177.869
	L587.832,177.869 M641.545,124.156L641.545,124.156"/>
<path fill="#FFD042" d="M520.986,68.232c-1.17-1.17-1.17-3.07,0-4.25l0,0c1.17-1.16,3.07-1.16,4.24,0l0,0
	c1.17,1.18,1.17,3.08,0,4.25l0,0c-0.58,0.58-1.351,0.88-2.12,0.88l0,0C522.336,69.112,521.576,68.812,520.986,68.232z
	 M508.366,55.612c-1.17-1.17-1.17-3.07,0-4.25l0,0c1.17-1.17,3.07-1.17,4.24,0l0,0c1.17,1.18,1.17,3.08,0,4.25l0,0
	c-0.58,0.58-1.351,0.88-2.12,0.88l0,0C509.717,56.492,508.956,56.192,508.366,55.612z M495.746,42.992c-1.17-1.18-1.17-3.08,0-4.25
	l0,0c1.17-1.17,3.07-1.17,4.24,0l0,0c1.17,1.17,1.17,3.07,0,4.25l0,0c-0.59,0.58-1.35,0.87-2.12,0.87l0,0
	C497.097,43.862,496.326,43.572,495.746,42.992z M483.126,30.362c-1.18-1.17-1.18-3.07,0-4.24l0,0c1.17-1.17,3.07-1.17,4.24,0l0,0
	c1.17,1.17,1.17,3.07,0,4.24l0,0c-0.59,0.59-1.36,0.88-2.12,0.88l0,0C484.477,31.242,483.706,30.952,483.126,30.362z
	 M470.496,17.742c-1.17-1.17-1.17-3.07,0-4.24l0,0c1.17-1.17,3.08-1.17,4.25,0l0,0c1.17,1.17,1.17,3.07,0,4.24l0,0
	c-0.59,0.59-1.359,0.88-2.12,0.88l0,0C471.856,18.622,471.086,18.332,470.496,17.742z"/>
<g>
	<defs>
		<rect id="SVGID_5_" y="0.001" width="2004.952" height="2231.757"/>
	</defs>
	<clipPath id="SVGID_33_">
		<use xlink:href="#SVGID_5_"  overflow="visible"/>
	</clipPath>
	
		<path clip-path="url(#SVGID_33_)" fill="none" stroke="#FFD042" stroke-width="6" stroke-linecap="round" stroke-linejoin="round" d="
		M535.729,78.729L535.729,78.729 M460,3L460,3"/>
</g>
<line fill="none" stroke="#FFD042" stroke-width="6" stroke-linecap="round" stroke-linejoin="round" stroke-dasharray="0,18.99" x1="562.116" y1="77.297" x2="528.547" y2="110.867"/>
<path fill="none" stroke="#FFD042" stroke-width="6" stroke-linecap="round" stroke-linejoin="round" d="M521.832,117.581
	L521.832,117.581 M575.545,63.868L575.545,63.868"/>
<path fill="#FFD042" d="M222.406,2215.651c-1.17-1.17-1.17-3.08,0-4.25l0,0c1.17-1.17,3.07-1.17,4.24,0l0,0
	c1.17,1.17,1.17,3.08,0,4.25l0,0c-0.58,0.58-1.351,0.87-2.12,0.87l0,0C223.756,2216.521,222.996,2216.231,222.406,2215.651z
	 M209.296,2202.542c-1.17-1.17-1.17-3.07,0-4.25l0,0c1.171-1.17,3.07-1.17,4.24,0l0,0c1.17,1.18,1.17,3.08,0,4.25l0,0
	c-0.58,0.58-1.35,0.88-2.12,0.88l0,0C210.646,2203.422,209.876,2203.122,209.296,2202.542z M196.187,2189.432
	c-1.17-1.17-1.17-3.07,0-4.25l0,0c1.17-1.17,3.069-1.17,4.24,0l0,0c1.17,1.18,1.17,3.08,0,4.25l0,0c-0.58,0.58-1.351,0.88-2.12,0.88
	l0,0C197.536,2190.312,196.776,2190.012,196.187,2189.432z M183.076,2176.321c-1.17-1.17-1.17-3.069,0-4.25l0,0
	c1.17-1.17,3.07-1.17,4.24,0l0,0c1.18,1.181,1.18,3.08,0,4.25l0,0c-0.58,0.58-1.35,0.881-2.12,0.881l0,0
	C184.427,2177.202,183.666,2176.901,183.076,2176.321z M169.967,2163.212c-1.171-1.17-1.171-3.07,0-4.24l0,0
	c1.17-1.17,3.069-1.17,4.25,0l0,0c1.17,1.17,1.17,3.07,0,4.24l0,0c-0.591,0.58-1.36,0.88-2.131,0.88l0,0
	C171.326,2164.092,170.557,2163.792,169.967,2163.212z M156.856,2150.102c-1.17-1.17-1.17-3.07,0-4.24l0,0
	c1.17-1.17,3.08-1.17,4.25,0l0,0c1.17,1.17,1.17,3.07,0,4.24l0,0c-0.59,0.59-1.36,0.88-2.13,0.88l0,0
	C158.217,2150.981,157.446,2150.691,156.856,2150.102z M143.746,2136.991c-1.17-1.17-1.17-3.069,0-4.239l0,0
	c1.181-1.17,3.08-1.17,4.25,0l0,0c1.17,1.17,1.17,3.069,0,4.239l0,0c-0.59,0.591-1.359,0.881-2.12,0.881l0,0
	C145.106,2137.872,144.336,2137.582,143.746,2136.991z M130.646,2123.882c-1.18-1.17-1.18-3.07,0-4.24l0,0
	c1.17-1.17,3.07-1.17,4.24,0l0,0c1.17,1.17,1.17,3.07,0,4.24l0,0c-0.591,0.59-1.36,0.88-2.12,0.88l0,0
	C131.996,2124.762,131.227,2124.472,130.646,2123.882z M117.536,2110.771c-1.17-1.17-1.17-3.069,0-4.24l0,0
	c1.17-1.17,3.07-1.17,4.24,0l0,0c1.17,1.171,1.17,3.07,0,4.24l0,0c-0.59,0.59-1.35,0.88-2.12,0.88l0,0
	C118.887,2111.651,118.116,2111.361,117.536,2110.771z M104.427,2097.672c-1.171-1.181-1.171-3.08,0-4.25l0,0
	c1.17-1.17,3.069-1.17,4.239,0l0,0c1.17,1.17,1.17,3.069,0,4.25l0,0c-0.59,0.58-1.35,0.87-2.12,0.87l0,0
	C105.776,2098.542,105.006,2098.252,104.427,2097.672z M91.316,2084.562c-1.17-1.18-1.17-3.08,0-4.25l0,0
	c1.17-1.17,3.07-1.17,4.24,0l0,0c1.17,1.17,1.17,3.07,0,4.25l0,0c-0.59,0.58-1.351,0.87-2.12,0.87l0,0
	C92.666,2085.432,91.896,2085.142,91.316,2084.562z M78.206,2071.452c-1.17-1.181-1.17-3.07,0-4.25l0,0
	c1.17-1.171,3.07-1.171,4.24,0l0,0c1.17,1.18,1.17,3.069,0,4.25l0,0c-0.58,0.579-1.35,0.869-2.12,0.869l0,0
	C79.557,2072.321,78.786,2072.031,78.206,2071.452z M65.097,2058.342c-1.17-1.17-1.17-3.07,0-4.24l0,0c1.17-1.18,3.069-1.18,4.239,0
	l0,0c1.17,1.17,1.17,3.07,0,4.24l0,0c-0.58,0.58-1.35,0.88-2.119,0.88l0,0C66.446,2059.222,65.687,2058.922,65.097,2058.342z
	 M51.986,2045.231c-1.17-1.17-1.17-3.069,0-4.24l0,0c1.17-1.17,3.07-1.17,4.24,0l0,0c1.18,1.171,1.18,3.07,0,4.24l0,0
	c-0.58,0.58-1.351,0.88-2.12,0.88l0,0C53.336,2046.111,52.576,2045.812,51.986,2045.231z"/>
<g>
	<defs>
		<rect id="SVGID_4_" y="0.001" width="2004.952" height="2231.757"/>
	</defs>
	<clipPath id="SVGID_37_">
		<use xlink:href="#SVGID_4_"  overflow="visible"/>
	</clipPath>
	
		<path clip-path="url(#SVGID_37_)" fill="none" stroke="#FFD042" stroke-width="6" stroke-linecap="round" stroke-linejoin="round" d="
		M41,2030L41,2030 M237.637,2226.636L237.637,2226.636"/>
</g>
<line fill="none" stroke="#FFD042" stroke-width="6" stroke-linecap="round" stroke-linejoin="round" stroke-dasharray="0,18.99" x1="831" y1="1036.971" x2="831" y2="989.495"/>
<path fill="none" stroke="#FFD042" stroke-width="6" stroke-linecap="round" stroke-linejoin="round" d="M831,980L831,980
	 M831,1055.961L831,1055.961"/>
<line fill="none" stroke="#FFD042" stroke-width="6" stroke-linecap="round" stroke-linejoin="round" stroke-dasharray="0,18.99" x1="925.299" y1="1037.971" x2="925.299" y2="990.495"/>
<path fill="none" stroke="#FFD042" stroke-width="6" stroke-linecap="round" stroke-linejoin="round" d="M925.299,981L925.299,981
	 M925.299,1056.961L925.299,1056.961"/>
<line fill="none" stroke="#FFD042" stroke-width="6" stroke-linecap="round" stroke-linejoin="round" stroke-dasharray="0,18.286" x1="960.285" y1="1021" x2="1444.857" y2="1021"/>
<path fill="none" stroke="#FFD042" stroke-width="6" stroke-linecap="round" stroke-linejoin="round" d="M1454,1021L1454,1021
	 M942,1021L942,1021"/>
<line fill="none" stroke="#FFD042" stroke-width="6" stroke-linecap="round" stroke-linejoin="round" stroke-dasharray="0,18.334" x1="239.758" y1="2173.092" x2="239.758" y2="2200.593"/>
<path fill="none" stroke="#FFD042" stroke-width="6" stroke-linecap="round" stroke-linejoin="round" d="M239.758,2209.76
	L239.758,2209.76 M239.758,2154.758L239.758,2154.758"/>
<g>
	<defs>
		<rect id="SVGID_3_" y="0.001" width="2004.952" height="2231.757"/>
	</defs>
	<clipPath id="SVGID_40_">
		<use xlink:href="#SVGID_3_"  overflow="visible"/>
	</clipPath>
	<g clip-path="url(#SVGID_40_)">
		<path fill="#FFD042" d="M205.427,2228.762c0-1.66,1.34-3.01,3-3.01l0,0c1.649,0,3,1.35,3,3.01l0,0c0,1.65-1.351,3-3,3l0,0
			C206.767,2231.762,205.427,2230.412,205.427,2228.762z M187.086,2228.762c0-1.66,1.351-3.01,3.011-3.01l0,0
			c1.649,0,2.989,1.35,2.989,3.01l0,0c0,1.65-1.34,3-2.989,3l0,0C188.437,2231.762,187.086,2230.412,187.086,2228.762z"/>
	</g>
	
		<path clip-path="url(#SVGID_40_)" fill="none" stroke="#FFD042" stroke-width="6" stroke-linecap="round" stroke-linejoin="round" d="
		M226.76,2228.758L226.76,2228.758 M171.758,2228.758L171.758,2228.758"/>
	
		<path clip-path="url(#SVGID_40_)" fill="none" stroke="#FFD042" stroke-width="2.5" stroke-linecap="round" stroke-linejoin="round" d="
		M1135.241,974.125c0,0-2,0-2,2v5c0,0,0,2,2,2h2.345c0,0,2,0,2-2v-5c0,0,0-2-2-2H1135.241z"/>
	
		<path clip-path="url(#SVGID_40_)" fill="none" stroke="#FFD042" stroke-width="2.5" stroke-linecap="round" stroke-linejoin="round" d="
		M1123.25,985.25c0,0-1,0-1,1V991c0,0,0,1,1,1h3.611c0,0,1,0,1-1v-4.75c0,0,0-1-1-1H1123.25z"/>
	
		<path clip-path="url(#SVGID_40_)" fill="none" stroke="#FFD042" stroke-width="2.5" stroke-linecap="round" stroke-linejoin="round" d="
		M1147.655,964c0,0-2,0-2,2v5c0,0,0,2,2,2H1150c0,0,2,0,2-2v-5c0,0,0-2-2-2H1147.655z"/>
	<path clip-path="url(#SVGID_40_)" fill="#FFD042" d="M1039.424,955.521c-2.229,0.01-13.449,0.322-13.461,5.402l0.012,32.435
		c0.306,3.156,0.787,5.408,13.449,5.408l53.777-0.006c6.18-0.187,13.273,0.403,13.462-5.402l0.017-32.435
		c-0.028-0.885-0.817-5.402-13.447-5.402H1039.424z M1093.217,1002.373l-53.793-0.008c-19.246,0.031-15.591,0.031-16.321-8.978
		L1022,960.924c0.016-7.123,9.672-9.008,17.424-9.008l53.793,0.008c17.746-0.008,17.797,5.888,17.783,9.006l-1,32.458
		C1108.76,1002.396,1114.037,1002.203,1093.217,1002.373"/>
	<path clip-path="url(#SVGID_40_)" fill="#FFD042" d="M1030.125,988.311c0-1.672,1.347-3.021,3.021-3.021
		c1.657,0,3.016,1.358,3.016,2.49c0,0,0,0.522-0.002,1.045c-0.004,1.155-1.35,2.505-3.014,2.51
		C1031.479,991.33,1030.125,989.977,1030.125,988.311"/>
	<path clip-path="url(#SVGID_40_)" fill="#FFD042" d="M1042.125,988.303c-0.005-1.67,1.341-3.02,3.01-3.014
		c1.669-0.008,3.016,1.342,3.016,2.491c0,0,0,0.522,0.002,1.044c0.005,1.146-1.349,2.497-3.018,2.494
		C1043.479,991.321,1042.12,989.971,1042.125,988.303"/>
	<path clip-path="url(#SVGID_40_)" fill="#FFD042" d="M1032.412,963.557c0,0-2.656-0.006-2.656,3.58l-0.006,8.797
		c0,0,0,0.522,0,1.045c0,3.056,0,3.056,2.662,3.056l13.301,0.002c0,0,2.662-0.005,2.658-3.574l0.004-8.8v-1.045
		c0-3.061,0-3.061-2.668-3.061H1032.412z"/>
	<path clip-path="url(#SVGID_40_)" fill="#FFD042" d="M1032.971,958.871c-1.313-0.008-2.804,0.387-2.846,1.632v0.427
		c0,0,0,1.005,1.041,1.005h16.168c0,0,1.041,0,1.041-0.506c0,0,0-0.505,0.023-0.55c0.022-0.047,0.022-0.047-0.019-0.528
		c-0.051-0.478-0.653-1.456-2.374-1.47C1046.006,958.881,1033.776,958.881,1032.971,958.871"/>
	<path clip-path="url(#SVGID_40_)" fill="#FFD042" d="M1057.537,963.184c0,0-2.656-0.006-2.656,3.582l-0.006,8.795
		c0,0,0,0.523,0,1.046c0,3.056,0,3.056,2.662,3.056l13.301,0.002c0,0,2.662-0.005,2.658-3.574l0.004-8.8v-1.045
		c0-3.062,0-3.062-2.668-3.062H1057.537z"/>
	<path clip-path="url(#SVGID_40_)" fill="#FFD042" d="M1082.287,963.184c0,0-2.656-0.006-2.656,3.582l-0.006,8.795
		c0,0,0,0.523,0,1.046c0,3.056,0,3.056,2.662,3.056l13.301,0.002c0,0,2.662-0.005,2.658-3.574l0.004-8.8v-1.045
		c0-3.062,0-3.062-2.668-3.062H1082.287z"/>
	<path clip-path="url(#SVGID_40_)" fill="#FFD042" d="M1047.998,1006.883c0,0,0,1.086,1.323,1.086h2.336
		c0,0,1.318,0.004,1.318-1.086v-5.876c0,0,0-1.081-1.318-1.089l-2.342,0.006c0,0-1.317-0.006-1.317,1.09V1006.883z"/>
	<path clip-path="url(#SVGID_40_)" fill="#FFD042" d="M1028,1006.886c0,0,0.006,1.081,1.324,1.083l2.343-0.002
		c0,0,1.317,0.006,1.317-1.087l0.006-5.876c0-1.083,0-1.083-1.323-1.089l-2.343,0.009c0,0-1.318-0.009-1.318,0.564
		c0,0,0,0.521,0,1.044L1028,1006.886z"/>
	<path clip-path="url(#SVGID_40_)" fill="#FFD042" d="M1099.998,1006.883c0,0,0,1.086,1.323,1.086h2.336
		c0,0,1.318,0.004,1.318-1.086v-5.876c0,0,0-1.081-1.318-1.089l-2.342,0.006c0,0-1.317-0.006-1.317,1.09V1006.883z"/>
	<path clip-path="url(#SVGID_40_)" fill="#FFD042" d="M1080,1006.886c0,0,0.006,1.081,1.324,1.083l2.343-0.002
		c0,0,1.317,0.006,1.317-1.087l0.006-5.876c0-1.083,0-1.083-1.323-1.089l-2.343,0.009c0,0-1.318-0.009-1.318,0.564
		c0,0,0,0.521,0,1.044L1080,1006.886z"/>
</g>
<path fill="#FFD042" d="M56.967,1684.002c0-1.66,1.35-3,3-3l0,0c1.659,0,3,1.34,3,3l0,0c0,1.649-1.341,3-3,3l0,0
	C58.316,1687.002,56.967,1685.651,56.967,1684.002z M37.977,1684.002c0-1.66,1.35-3,3-3l0,0c1.66,0,3,1.34,3,3l0,0
	c0,1.649-1.34,3-3,3l0,0C39.326,1687.002,37.977,1685.651,37.977,1684.002z M18.986,1684.002c0-1.66,1.35-3,3-3l0,0
	c1.66,0,3.01,1.34,3.01,3l0,0c0,1.649-1.35,3-3.01,3l0,0C20.336,1687.002,18.986,1685.651,18.986,1684.002z"/>
<g>
	<defs>
		<rect id="SVGID_2_" y="0.001" width="2004.952" height="2231.757"/>
	</defs>
	<clipPath id="SVGID_41_">
		<use xlink:href="#SVGID_2_"  overflow="visible"/>
	</clipPath>
	
		<path clip-path="url(#SVGID_41_)" fill="none" stroke="#FFD042" stroke-width="6" stroke-linecap="round" stroke-linejoin="round" d="
		M78.961,1684L78.961,1684 M3,1684L3,1684"/>
</g>
<path fill="#FFD042" d="M56.967,1778.302c0-1.66,1.35-3,3-3l0,0c1.659,0,3,1.34,3,3l0,0c0,1.65-1.341,3-3,3l0,0
	C58.316,1781.302,56.967,1779.952,56.967,1778.302z M37.977,1778.302c0-1.66,1.35-3,3-3l0,0c1.66,0,3,1.34,3,3l0,0
	c0,1.65-1.34,3-3,3l0,0C39.326,1781.302,37.977,1779.952,37.977,1778.302z M18.986,1778.302c0-1.66,1.35-3,3-3l0,0
	c1.66,0,3,1.34,3,3l0,0c0,1.65-1.34,3-3,3l0,0C20.336,1781.302,18.986,1779.952,18.986,1778.302z"/>
<g>
	<defs>
		<rect id="SVGID_1_" y="0.001" width="2004.952" height="2231.757"/>
	</defs>
	<clipPath id="SVGID_44_">
		<use xlink:href="#SVGID_1_"  overflow="visible"/>
	</clipPath>
	
		<path clip-path="url(#SVGID_44_)" fill="none" stroke="#FFD042" stroke-width="6" stroke-linecap="round" stroke-linejoin="round" d="
		M78.961,1778.299L78.961,1778.299 M3,1778.299L3,1778.299"/>
</g>
<line fill="none" stroke="#FFD042" stroke-width="6" stroke-linecap="round" stroke-linejoin="round" stroke-dasharray="0,18" x1="40.98" y1="1994" x2="40.98" y2="1805"/>
<path fill="none" stroke="#FFD042" stroke-width="6" stroke-linecap="round" stroke-linejoin="round" d="M40.98,1796L40.98,1796
	 M40.98,2012L40.98,2012"/>
<line fill="none" stroke="#FFD042" stroke-width="6" stroke-linecap="round" stroke-linejoin="round" stroke-dasharray="0,18.079" x1="1271.905" y1="824.905" x2="1444.487" y2="997.487"/>
<path fill="none" stroke="#FFD042" stroke-width="6" stroke-linecap="round" stroke-linejoin="round" d="M1450.879,1003.879
	L1450.879,1003.879 M1259.121,812.121L1259.121,812.121"/>
<line fill="none" stroke="#FFD042" stroke-width="6" stroke-linecap="round" stroke-linejoin="round" stroke-dasharray="0,19.5" x1="1460" y1="1093.5" x2="1460" y2="1044.75"/>
<path fill="none" stroke="#FFD042" stroke-width="6" stroke-linecap="round" stroke-linejoin="round" d="M1460,1035L1460,1035
	 M1460,1113L1460,1113"/>
<path fill="#FFD042" d="M1478.597,1008.552c-1.17-1.17-1.17-3.07,0-4.24l0,0c1.17-1.17,3.069-1.17,4.239,0l0,0
	c1.17,1.17,1.17,3.07,0,4.24l0,0c-0.58,0.58-1.35,0.88-2.119,0.88l0,0C1479.946,1009.432,1479.187,1009.132,1478.597,1008.552z
	 M1491.307,995.842c-1.17-1.18-1.17-3.07,0-4.25l0,0c1.17-1.17,3.069-1.17,4.25,0l0,0c1.17,1.18,1.17,3.07,0,4.25l0,0
	c-0.59,0.58-1.36,0.87-2.13,0.87l0,0C1492.666,996.712,1491.896,996.422,1491.307,995.842z M1504.026,983.122
	c-1.18-1.17-1.18-3.07,0-4.24l0,0c1.17-1.17,3.07-1.17,4.24,0l0,0c1.17,1.17,1.17,3.07,0,4.24l0,0c-0.59,0.59-1.351,0.88-2.12,0.88
	l0,0C1505.376,984.002,1504.606,983.712,1504.026,983.122z M1516.736,970.412c-1.17-1.17-1.17-3.07,0-4.24l0,0
	c1.17-1.18,3.07-1.18,4.24,0l0,0c1.17,1.17,1.17,3.07,0,4.24l0,0c-0.58,0.59-1.351,0.88-2.12,0.88l0,0
	C1518.086,971.292,1517.316,971.002,1516.736,970.412z M1529.446,957.702c-1.17-1.171-1.17-3.07,0-4.25l0,0
	c1.17-1.171,3.07-1.171,4.24,0l0,0c1.17,1.18,1.17,3.079,0,4.25l0,0c-0.58,0.579-1.351,0.869-2.12,0.869l0,0
	C1530.807,958.571,1530.036,958.281,1529.446,957.702z M1542.156,944.981c-1.17-1.17-1.17-3.069,0-4.239l0,0
	c1.18-1.171,3.08-1.171,4.25,0l0,0c1.17,1.17,1.17,3.069,0,4.239l0,0c-0.59,0.59-1.36,0.88-2.12,0.88l0,0
	C1543.517,945.861,1542.746,945.571,1542.156,944.981z M1554.876,932.271c-1.17-1.17-1.17-3.069,0-4.24l0,0
	c1.17-1.17,3.07-1.17,4.24,0l0,0c1.17,1.171,1.17,3.07,0,4.24l0,0c-0.59,0.59-1.35,0.88-2.12,0.88l0,0
	C1556.227,933.151,1555.456,932.861,1554.876,932.271z M1567.586,919.562c-1.17-1.17-1.17-3.08,0-4.25l0,0
	c1.17-1.17,3.07-1.17,4.25,0l0,0c1.16,1.17,1.16,3.08,0,4.25l0,0c-0.59,0.58-1.359,0.88-2.13,0.88l0,0
	C1568.937,920.441,1568.177,920.142,1567.586,919.562z M1580.296,906.842c-1.17-1.17-1.17-3.07,0-4.24l0,0
	c1.181-1.17,3.07-1.17,4.25,0l0,0c1.171,1.17,1.171,3.07,0,4.24l0,0c-0.59,0.59-1.359,0.88-2.119,0.88l0,0
	C1581.656,907.722,1580.887,907.432,1580.296,906.842z M1593.017,894.132c-1.17-1.17-1.17-3.07,0-4.24l0,0
	c1.17-1.17,3.069-1.17,4.239,0l0,0c1.171,1.17,1.171,3.07,0,4.24l0,0c-0.59,0.59-1.35,0.88-2.119,0.88l0,0
	C1594.366,895.012,1593.597,894.722,1593.017,894.132z M1605.727,881.422c-1.17-1.17-1.17-3.07,0-4.24l0,0
	c1.17-1.18,3.069-1.18,4.24,0l0,0c1.17,1.17,1.17,3.07,0,4.24l0,0c-0.58,0.58-1.351,0.88-2.12,0.88l0,0
	C1607.076,882.302,1606.307,882.002,1605.727,881.422z M1618.437,868.712c-1.17-1.17-1.17-3.08,0-4.25l0,0
	c1.17-1.17,3.069-1.17,4.25,0l0,0c1.16,1.17,1.16,3.08,0,4.25l0,0c-0.59,0.58-1.36,0.87-2.13,0.87l0,0
	C1619.796,869.582,1619.026,869.292,1618.437,868.712z M1631.146,855.992c-1.17-1.171-1.17-3.07,0-4.24l0,0
	c1.18-1.17,3.08-1.17,4.25,0l0,0c1.17,1.17,1.17,3.069,0,4.24l0,0c-0.59,0.59-1.351,0.88-2.12,0.88l0,0
	C1632.506,856.872,1631.736,856.582,1631.146,855.992z M1643.866,843.281c-1.17-1.17-1.17-3.069,0-4.239l0,0
	c1.17-1.181,3.07-1.181,4.24,0l0,0c1.17,1.17,1.17,3.069,0,4.239l0,0c-0.58,0.58-1.351,0.881-2.12,0.881l0,0
	C1645.217,844.162,1644.446,843.861,1643.866,843.281z M1656.576,830.571c-1.17-1.17-1.17-3.079,0-4.25l0,0
	c1.17-1.17,3.07-1.17,4.25,0l0,0c1.17,1.171,1.17,3.08,0,4.25l0,0c-0.59,0.58-1.359,0.87-2.13,0.87l0,0
	C1657.937,831.441,1657.166,831.151,1656.576,830.571z M1669.296,817.852c-1.18-1.17-1.18-3.07,0-4.24l0,0
	c1.171-1.17,3.061-1.17,4.24,0l0,0c1.17,1.17,1.17,3.07,0,4.24l0,0c-0.59,0.59-1.359,0.88-2.12,0.88l0,0
	C1670.646,818.731,1669.876,818.441,1669.296,817.852z M1682.006,805.142c-1.17-1.17-1.17-3.07,0-4.24l0,0
	c1.171-1.17,3.07-1.17,4.24,0l0,0c1.17,1.17,1.17,3.07,0,4.24l0,0c-0.59,0.59-1.35,0.88-2.12,0.88l0,0
	C1683.356,806.021,1682.586,805.731,1682.006,805.142z M1694.717,792.432c-1.171-1.18-1.171-3.07,0-4.24l0,0
	c1.17-1.18,3.069-1.18,4.239,0l0,0c1.181,1.17,1.181,3.061,0,4.24l0,0c-0.58,0.58-1.35,0.88-2.12,0.88l0,0
	C1696.076,793.312,1695.307,793.012,1694.717,792.432z M1707.427,779.722c-1.171-1.18-1.171-3.08,0-4.25l0,0
	c1.17-1.17,3.079-1.17,4.25,0l0,0c1.17,1.17,1.17,3.07,0,4.25l0,0c-0.591,0.58-1.36,0.87-2.131,0.87l0,0
	C1708.786,780.592,1708.017,780.302,1707.427,779.722z M1720.146,767.002c-1.17-1.17-1.17-3.07,0-4.24l0,0
	c1.17-1.17,3.07-1.17,4.24,0l0,0c1.17,1.17,1.17,3.07,0,4.24l0,0c-0.591,0.59-1.351,0.88-2.12,0.88l0,0
	C1721.496,767.882,1720.727,767.592,1720.146,767.002z M1732.856,754.292c-1.17-1.17-1.17-3.07,0-4.25l0,0
	c1.17-1.17,3.07-1.17,4.24,0l0,0c1.18,1.18,1.18,3.08,0,4.25l0,0c-0.58,0.58-1.351,0.88-2.12,0.88l0,0
	C1734.206,755.172,1733.437,754.872,1732.856,754.292z M1745.566,741.582c-1.17-1.181-1.17-3.08,0-4.25l0,0
	c1.17-1.17,3.07-1.17,4.25,0l0,0c1.17,1.17,1.17,3.069,0,4.25l0,0c-0.59,0.58-1.36,0.87-2.13,0.87l0,0
	C1746.927,742.452,1746.156,742.162,1745.566,741.582z M1758.286,728.861c-1.18-1.17-1.18-3.069,0-4.239l0,0
	c1.17-1.17,3.07-1.17,4.24,0l0,0c1.17,1.17,1.17,3.069,0,4.239l0,0c-0.59,0.591-1.35,0.881-2.12,0.881l0,0
	C1759.637,729.742,1758.866,729.452,1758.286,728.861z M1770.996,716.151c-1.17-1.17-1.17-3.069,0-4.239l0,0
	c1.17-1.17,3.07-1.17,4.24,0l0,0c1.17,1.17,1.17,3.069,0,4.239l0,0c-0.59,0.58-1.35,0.88-2.12,0.88l0,0
	C1772.347,717.031,1771.586,716.731,1770.996,716.151z M1783.706,703.441c-1.17-1.18-1.17-3.08,0-4.25l0,0
	c1.17-1.17,3.08-1.17,4.25,0l0,0c1.17,1.17,1.17,3.07,0,4.25l0,0c-0.59,0.58-1.359,0.88-2.13,0.88l0,0
	C1785.066,704.321,1784.296,704.021,1783.706,703.441z M1796.427,690.722c-1.181-1.17-1.181-3.07,0-4.24l0,0
	c1.17-1.17,3.069-1.17,4.239,0l0,0c1.17,1.17,1.17,3.07,0,4.24l0,0c-0.59,0.59-1.359,0.88-2.12,0.88l0,0
	C1797.776,691.602,1797.006,691.312,1796.427,690.722z M1809.137,678.012c-1.171-1.17-1.171-3.07,0-4.24l0,0
	c1.17-1.17,3.069-1.17,4.239,0l0,0c1.17,1.17,1.17,3.07,0,4.24l0,0c-0.58,0.59-1.35,0.88-2.12,0.88l0,0
	C1810.486,678.892,1809.727,678.602,1809.137,678.012z M1821.847,665.302c-1.17-1.18-1.17-3.07,0-4.25l0,0
	c1.17-1.17,3.069-1.17,4.239,0l0,0c1.181,1.18,1.181,3.07,0,4.25l0,0c-0.58,0.58-1.35,0.87-2.12,0.87l0,0
	C1823.206,666.172,1822.437,665.882,1821.847,665.302z M1834.557,652.592c-1.17-1.18-1.17-3.08,0-4.25l0,0
	c1.17-1.17,3.08-1.17,4.25,0l0,0c1.17,1.17,1.17,3.07,0,4.25l0,0c-0.591,0.58-1.36,0.87-2.12,0.87l0,0
	C1835.916,653.462,1835.146,653.172,1834.557,652.592z M1847.276,639.872c-1.17-1.17-1.17-3.07,0-4.24l0,0
	c1.17-1.17,3.07-1.17,4.24,0l0,0c1.17,1.17,1.17,3.07,0,4.24l0,0c-0.59,0.59-1.351,0.88-2.12,0.88l0,0
	C1848.626,640.752,1847.856,640.462,1847.276,639.872z M1859.986,627.162c-1.17-1.17-1.17-3.07,0-4.25l0,0
	c1.17-1.17,3.07-1.17,4.24,0l0,0c1.18,1.18,1.18,3.08,0,4.25l0,0c-0.58,0.58-1.351,0.88-2.12,0.88l0,0
	C1861.336,628.042,1860.576,627.742,1859.986,627.162z M1872.696,614.441c-1.17-1.17-1.17-3.069,0-4.239l0,0
	c1.18-1.171,3.08-1.171,4.25,0l0,0c1.17,1.17,1.17,3.069,0,4.239l0,0c-0.59,0.59-1.36,0.88-2.12,0.88l0,0
	C1874.057,615.321,1873.286,615.031,1872.696,614.441z M1885.416,601.731c-1.18-1.17-1.18-3.069,0-4.239l0,0
	c1.17-1.171,3.07-1.171,4.24,0l0,0c1.17,1.17,1.17,3.069,0,4.239l0,0c-0.58,0.59-1.35,0.88-2.12,0.88l0,0
	C1886.767,602.611,1885.996,602.321,1885.416,601.731z M1898.126,589.021c-1.17-1.17-1.17-3.069,0-4.24l0,0
	c1.17-1.17,3.07-1.17,4.24,0l0,0c1.17,1.171,1.17,3.07,0,4.24l0,0c-0.58,0.58-1.35,0.88-2.12,0.88l0,0
	C1899.477,589.901,1898.716,589.602,1898.126,589.021z M1910.836,576.312c-1.17-1.18-1.17-3.08,0-4.25l0,0
	c1.181-1.17,3.07-1.17,4.25,0l0,0c1.17,1.17,1.17,3.07,0,4.25l0,0c-0.59,0.58-1.359,0.87-2.13,0.87l0,0
	C1912.196,577.182,1911.427,576.892,1910.836,576.312z M1923.557,563.592c-1.17-1.17-1.17-3.07,0-4.24l0,0
	c1.17-1.17,3.069-1.17,4.239,0l0,0c1.17,1.17,1.17,3.07,0,4.24l0,0c-0.59,0.59-1.359,0.88-2.119,0.88l0,0
	C1924.906,564.472,1924.137,564.182,1923.557,563.592z M1936.267,550.882c-1.17-1.17-1.17-3.07,0-4.24l0,0
	c1.17-1.18,3.069-1.18,4.239,0l0,0c1.171,1.17,1.171,3.07,0,4.24l0,0c-0.579,0.58-1.35,0.88-2.119,0.88l0,0
	C1937.616,551.762,1936.856,551.462,1936.267,550.882z M1948.977,538.162c-1.17-1.17-1.17-3.061,0-4.24l0,0
	c1.18-1.17,3.069-1.17,4.25,0l0,0c1.17,1.18,1.17,3.07,0,4.24l0,0c-0.59,0.59-1.36,0.88-2.13,0.88l0,0
	C1950.336,539.042,1949.566,538.752,1948.977,538.162z M1961.687,525.452c-1.17-1.171-1.17-3.07,0-4.24l0,0
	c1.18-1.17,3.08-1.17,4.25,0l0,0c1.17,1.17,1.17,3.069,0,4.24l0,0c-0.59,0.59-1.36,0.88-2.12,0.88l0,0
	C1963.046,526.332,1962.276,526.042,1961.687,525.452z M1974.406,512.742c-1.17-1.171-1.17-3.07,0-4.24l0,0
	c1.17-1.17,3.07-1.17,4.24,0l0,0c1.17,1.17,1.17,3.069,0,4.24l0,0c-0.58,0.59-1.351,0.88-2.12,0.88l0,0
	C1975.756,513.622,1974.986,513.332,1974.406,512.742z M1987.116,500.031c-1.17-1.17-1.17-3.079,0-4.25l0,0
	c1.17-1.17,3.07-1.17,4.25,0l0,0c1.16,1.171,1.16,3.08,0,4.25l0,0c-0.59,0.58-1.36,0.881-2.13,0.881l0,0
	C1988.477,500.912,1987.706,500.611,1987.116,500.031z"/>
<path fill="none" d="M2004.085,483.074c-1.171-1.172-3.07-1.172-4.243,0l-533.962,533.952c-1.172,1.171-1.172,3.071,0,4.242
	c0.586,0.586,1.354,0.879,2.121,0.879s1.535-0.293,2.121-0.879l533.962-533.952C2005.256,486.146,2005.256,484.246,2004.085,483.074
	z"/>
<line fill="none" stroke="#FFD042" stroke-width="6" stroke-linecap="round" stroke-linejoin="round" stroke-dasharray="0,17.885" x1="1258" y1="772.115" x2="1258" y2="333.942"/>
<path fill="none" stroke="#FFD042" stroke-width="6" stroke-linecap="round" stroke-linejoin="round" d="M1258,325.001L1258,325.001
	 M1258,790L1258,790"/>
<line fill="none" stroke="#FFD042" stroke-width="6" stroke-linecap="round" stroke-linejoin="round" stroke-dasharray="0,17.846" x1="796.846" y1="311" x2="1234.077" y2="311"/>
<path fill="none" stroke="#FFD042" stroke-width="6" stroke-linecap="round" stroke-linejoin="round" d="M1243,311L1243,311
	 M779,311L779,311"/>
<path fill="#FFD042" d="M1270.046,299.492c-1.17-1.181-1.17-3.07,0-4.24l0,0c1.171-1.181,3.07-1.181,4.24,0l0,0
	c1.17,1.17,1.17,3.06,0,4.24l0,0c-0.58,0.579-1.35,0.88-2.12,0.88l0,0C1271.396,300.372,1270.637,300.071,1270.046,299.492z
	 M1282.826,286.702c-1.17-1.171-1.17-3.07,0-4.24l0,0c1.17-1.17,3.07-1.17,4.25,0l0,0c1.17,1.17,1.17,3.069,0,4.24l0,0
	c-0.59,0.59-1.359,0.88-2.13,0.88l0,0C1284.187,287.582,1283.416,287.292,1282.826,286.702z M1295.616,273.922
	c-1.18-1.17-1.18-3.07,0-4.24l0,0c1.17-1.17,3.061-1.17,4.24,0l0,0c1.17,1.17,1.17,3.07,0,4.24l0,0c-0.59,0.59-1.36,0.88-2.12,0.88
	l0,0C1296.967,274.802,1296.196,274.512,1295.616,273.922z M1308.396,261.142c-1.17-1.17-1.17-3.07,0-4.24l0,0
	c1.17-1.17,3.07-1.17,4.24,0l0,0c1.17,1.17,1.17,3.07,0,4.24l0,0c-0.591,0.59-1.351,0.88-2.12,0.88l0,0
	C1309.746,262.021,1308.977,261.731,1308.396,261.142z M1321.177,248.361c-1.171-1.17-1.171-3.069,0-4.239l0,0
	c1.17-1.17,3.069-1.17,4.239,0l0,0c1.17,1.17,1.17,3.069,0,4.239l0,0c-0.58,0.591-1.35,0.881-2.12,0.881l0,0
	C1322.526,249.242,1321.756,248.952,1321.177,248.361z M1333.956,235.582c-1.17-1.17-1.17-3.07,0-4.24l0,0
	c1.17-1.17,3.07-1.17,4.24,0l0,0c1.17,1.17,1.17,3.07,0,4.24l0,0c-0.58,0.58-1.35,0.88-2.12,0.88l0,0
	C1335.307,236.462,1334.546,236.162,1333.956,235.582z M1346.736,222.802c-1.17-1.17-1.17-3.07,0-4.25l0,0
	c1.17-1.17,3.07-1.17,4.24,0l0,0c1.18,1.18,1.18,3.08,0,4.25l0,0c-0.58,0.58-1.351,0.88-2.12,0.88l0,0
	C1348.097,223.682,1347.326,223.382,1346.736,222.802z M1359.517,210.021c-1.17-1.18-1.17-3.08,0-4.25l0,0
	c1.17-1.17,3.069-1.17,4.25,0l0,0c1.17,1.17,1.17,3.07,0,4.25l0,0c-0.59,0.58-1.36,0.87-2.13,0.87l0,0
	C1360.876,210.892,1360.106,210.602,1359.517,210.021z M1372.307,197.231c-1.17-1.17-1.17-3.069,0-4.239l0,0
	c1.17-1.171,3.06-1.171,4.239,0l0,0c1.171,1.17,1.171,3.069,0,4.239l0,0c-0.59,0.59-1.359,0.88-2.119,0.88l0,0
	C1373.656,198.111,1372.887,197.821,1372.307,197.231z M1385.086,184.452c-1.17-1.171-1.17-3.07,0-4.24l0,0
	c1.17-1.17,3.07-1.17,4.24,0l0,0c1.17,1.17,1.17,3.069,0,4.24l0,0c-0.59,0.59-1.35,0.88-2.12,0.88l0,0
	C1386.437,185.332,1385.666,185.042,1385.086,184.452z M1397.866,171.672c-1.17-1.17-1.17-3.07,0-4.24l0,0
	c1.17-1.17,3.07-1.17,4.24,0l0,0c1.17,1.17,1.17,3.07,0,4.24l0,0c-0.59,0.59-1.351,0.88-2.12,0.88l0,0
	C1399.217,172.552,1398.446,172.262,1397.866,171.672z M1410.646,158.892c-1.17-1.17-1.17-3.07,0-4.24l0,0
	c1.17-1.18,3.07-1.18,4.24,0l0,0c1.17,1.17,1.17,3.07,0,4.24l0,0c-0.58,0.58-1.351,0.88-2.12,0.88l0,0
	C1411.996,159.771,1411.227,159.472,1410.646,158.892z M1423.427,146.111c-1.171-1.17-1.171-3.069,0-4.25l0,0
	c1.17-1.17,3.069-1.17,4.239,0l0,0c1.181,1.181,1.181,3.08,0,4.25l0,0c-0.58,0.58-1.35,0.881-2.12,0.881l0,0
	C1424.786,146.992,1424.017,146.691,1423.427,146.111z M1436.206,133.321c-1.17-1.17-1.17-3.069,0-4.239l0,0
	c1.17-1.17,3.07-1.17,4.25,0l0,0c1.17,1.17,1.17,3.069,0,4.239l0,0c-0.59,0.591-1.359,0.881-2.13,0.881l0,0
	C1437.566,134.202,1436.796,133.912,1436.206,133.321z M1448.986,120.542c-1.17-1.17-1.17-3.07,0-4.24l0,0
	c1.17-1.17,3.07-1.17,4.25,0l0,0c1.17,1.17,1.17,3.07,0,4.24l0,0c-0.59,0.59-1.36,0.88-2.13,0.88l0,0
	C1450.347,121.422,1449.576,121.132,1448.986,120.542z M1461.776,107.762c-1.17-1.17-1.17-3.07,0-4.24l0,0
	c1.17-1.17,3.07-1.17,4.24,0l0,0c1.17,1.17,1.17,3.07,0,4.24l0,0c-0.59,0.59-1.351,0.88-2.12,0.88l0,0
	C1463.126,108.642,1462.356,108.352,1461.776,107.762z M1474.557,94.982c-1.17-1.17-1.17-3.07,0-4.24l0,0
	c1.17-1.17,3.069-1.17,4.239,0l0,0c1.171,1.17,1.171,3.07,0,4.24l0,0c-0.579,0.59-1.35,0.88-2.119,0.88l0,0
	C1475.906,95.862,1475.137,95.572,1474.557,94.982z M1487.336,82.202c-1.17-1.17-1.17-3.07,0-4.24l0,0c1.17-1.18,3.07-1.18,4.24,0
	l0,0c1.17,1.17,1.17,3.07,0,4.24l0,0c-0.58,0.58-1.35,0.88-2.12,0.88l0,0C1488.687,83.082,1487.916,82.782,1487.336,82.202z
	 M1500.116,69.422c-1.17-1.17-1.17-3.07,0-4.25l0,0c1.17-1.17,3.07-1.17,4.25,0l0,0c1.17,1.18,1.17,3.08,0,4.25l0,0
	c-0.59,0.58-1.36,0.88-2.13,0.88l0,0C1501.477,70.302,1500.706,70.002,1500.116,69.422z M1512.896,56.642
	c-1.17-1.17-1.17-3.07,0-4.25l0,0c1.17-1.17,3.07-1.17,4.25,0l0,0c1.17,1.18,1.17,3.08,0,4.25l0,0c-0.59,0.58-1.36,0.88-2.13,0.88
	l0,0C1514.256,57.522,1513.486,57.222,1512.896,56.642z M1525.677,43.862c-1.171-1.18-1.171-3.08,0-4.25l0,0
	c1.18-1.17,3.079-1.17,4.25,0l0,0c1.17,1.17,1.17,3.07,0,4.25l0,0c-0.591,0.58-1.36,0.87-2.12,0.87l0,0
	C1527.036,44.732,1526.267,44.442,1525.677,43.862z M1538.467,31.072c-1.171-1.17-1.171-3.07,0-4.24l0,0
	c1.17-1.17,3.069-1.17,4.239,0l0,0c1.17,1.17,1.17,3.07,0,4.24l0,0c-0.59,0.59-1.359,0.88-2.12,0.88l0,0
	C1539.816,31.952,1539.046,31.662,1538.467,31.072z M1551.246,18.292c-1.17-1.17-1.17-3.07,0-4.24l0,0c1.17-1.17,3.07-1.17,4.24,0
	l0,0c1.17,1.17,1.17,3.07,0,4.24l0,0c-0.59,0.59-1.35,0.88-2.12,0.88l0,0C1552.597,19.172,1551.826,18.882,1551.246,18.292z"/>
<path fill="none" stroke="#FFD042" stroke-width="6" stroke-linecap="round" stroke-linejoin="round" d="M1259.391,310.147
	L1259.391,310.147 M1566.147,3.391L1566.147,3.391"/>
<path fill="#FFD042" d="M1089.006,1842.991c-1.17-1.17-1.17-3.069,0-4.239l0,0c1.171-1.181,3.07-1.181,4.25,0l0,0
	c1.171,1.17,1.171,3.069,0,4.239l0,0c-0.59,0.58-1.359,0.881-2.119,0.881l0,0
	C1090.366,1843.872,1089.597,1843.571,1089.006,1842.991z M1101.896,1830.102c-1.17-1.17-1.17-3.07,0-4.24l0,0
	c1.17-1.17,3.07-1.17,4.24,0l0,0c1.17,1.17,1.17,3.07,0,4.24l0,0c-0.58,0.59-1.351,0.88-2.12,0.88l0,0
	C1103.246,1830.981,1102.486,1830.691,1101.896,1830.102z M1114.786,1817.212c-1.17-1.17-1.17-3.07,0-4.24l0,0
	c1.17-1.17,3.07-1.17,4.24,0l0,0c1.17,1.17,1.17,3.07,0,4.24l0,0c-0.58,0.59-1.35,0.88-2.12,0.88l0,0
	C1116.137,1818.092,1115.366,1817.802,1114.786,1817.212z M1127.677,1804.321c-1.171-1.17-1.171-3.069,0-4.239l0,0
	c1.17-1.17,3.069-1.17,4.239,0l0,0c1.17,1.17,1.17,3.069,0,4.239l0,0c-0.59,0.591-1.35,0.881-2.12,0.881l0,0
	C1129.026,1805.202,1128.256,1804.912,1127.677,1804.321z M1140.566,1791.432c-1.18-1.17-1.18-3.07,0-4.24l0,0
	c1.17-1.17,3.07-1.17,4.24,0l0,0c1.17,1.17,1.17,3.07,0,4.24l0,0c-0.59,0.59-1.351,0.88-2.12,0.88l0,0
	C1141.916,1792.312,1141.146,1792.021,1140.566,1791.432z M1153.456,1778.552c-1.18-1.18-1.18-3.08,0-4.25l0,0
	c1.17-1.17,3.07-1.17,4.24,0l0,0c1.17,1.17,1.17,3.07,0,4.25l0,0c-0.59,0.58-1.36,0.87-2.12,0.87l0,0
	C1154.807,1779.422,1154.036,1779.132,1153.456,1778.552z M1166.336,1765.662c-1.17-1.181-1.17-3.08,0-4.25l0,0
	c1.181-1.171,3.07-1.171,4.24,0l0,0c1.18,1.17,1.18,3.069,0,4.25l0,0c-0.58,0.579-1.35,0.88-2.12,0.88l0,0
	C1167.696,1766.542,1166.927,1766.241,1166.336,1765.662z M1179.227,1752.771c-1.17-1.17-1.17-3.069,0-4.24l0,0
	c1.17-1.17,3.069-1.17,4.24,0l0,0c1.18,1.171,1.18,3.07,0,4.24l0,0c-0.58,0.58-1.351,0.88-2.12,0.88l0,0
	C1180.576,1753.651,1179.816,1753.352,1179.227,1752.771z M1192.116,1739.882c-1.17-1.17-1.17-3.07,0-4.24l0,0
	c1.17-1.17,3.07-1.17,4.24,0l0,0c1.17,1.17,1.17,3.07,0,4.24l0,0c-0.58,0.59-1.351,0.88-2.12,0.88l0,0
	C1193.467,1740.762,1192.696,1740.472,1192.116,1739.882z M1205.006,1726.991c-1.17-1.17-1.17-3.069,0-4.239l0,0
	c1.171-1.17,3.07-1.17,4.24,0l0,0c1.17,1.17,1.17,3.069,0,4.239l0,0c-0.58,0.591-1.35,0.881-2.12,0.881l0,0
	C1206.356,1727.872,1205.586,1727.582,1205.006,1726.991z M1217.896,1714.102c-1.17-1.17-1.17-3.07,0-4.24l0,0
	c1.17-1.17,3.07-1.17,4.24,0l0,0c1.17,1.17,1.17,3.07,0,4.24l0,0c-0.591,0.59-1.351,0.88-2.12,0.88l0,0
	C1219.246,1714.981,1218.477,1714.691,1217.896,1714.102z M1230.786,1701.212c-1.18-1.17-1.18-3.07,0-4.24l0,0
	c1.17-1.17,3.07-1.17,4.24,0l0,0c1.17,1.17,1.17,3.07,0,4.24l0,0c-0.59,0.59-1.35,0.88-2.12,0.88l0,0
	C1232.137,1702.092,1231.366,1701.802,1230.786,1701.212z M1243.666,1688.332c-1.17-1.181-1.17-3.08,0-4.25l0,0
	c1.181-1.17,3.08-1.17,4.25,0l0,0c1.17,1.17,1.17,3.069,0,4.25l0,0c-0.59,0.58-1.359,0.87-2.12,0.87l0,0
	C1245.026,1689.202,1244.256,1688.912,1243.666,1688.332z M1256.557,1675.441c-1.17-1.17-1.17-3.069,0-4.239l0,0
	c1.17-1.181,3.069-1.181,4.239,0l0,0c1.181,1.17,1.181,3.069,0,4.239l0,0c-0.579,0.58-1.35,0.88-2.119,0.88l0,0
	C1257.906,1676.321,1257.146,1676.021,1256.557,1675.441z M1269.446,1662.552c-1.17-1.17-1.17-3.07,0-4.24l0,0
	c1.17-1.17,3.07-1.17,4.24,0l0,0c1.18,1.17,1.18,3.07,0,4.24l0,0c-0.58,0.59-1.351,0.88-2.12,0.88l0,0
	C1270.796,1663.432,1270.036,1663.142,1269.446,1662.552z M1282.336,1649.662c-1.17-1.171-1.17-3.07,0-4.24l0,0
	c1.17-1.17,3.07-1.17,4.24,0l0,0c1.17,1.17,1.17,3.069,0,4.24l0,0c-0.58,0.59-1.35,0.88-2.12,0.88l0,0
	C1283.687,1650.542,1282.916,1650.252,1282.336,1649.662z M1295.227,1636.771c-1.17-1.17-1.17-3.069,0-4.24l0,0
	c1.17-1.17,3.069-1.17,4.24,0l0,0c1.17,1.171,1.17,3.07,0,4.24l0,0c-0.58,0.59-1.351,0.88-2.12,0.88l0,0
	C1296.576,1637.651,1295.807,1637.361,1295.227,1636.771z M1308.116,1623.882c-1.18-1.17-1.18-3.07,0-4.24l0,0
	c1.17-1.17,3.061-1.17,4.24,0l0,0c1.17,1.17,1.17,3.07,0,4.24l0,0c-0.59,0.59-1.36,0.88-2.12,0.88l0,0
	C1309.467,1624.762,1308.696,1624.472,1308.116,1623.882z M1320.996,1610.991c-1.17-1.17-1.17-3.06,0-4.239l0,0
	c1.17-1.17,3.07-1.17,4.25,0l0,0c1.17,1.18,1.17,3.069,0,4.239l0,0c-0.59,0.591-1.359,0.881-2.13,0.881l0,0
	C1322.356,1611.872,1321.586,1611.582,1320.996,1610.991z M1333.887,1598.111c-1.17-1.17-1.17-3.069,0-4.25l0,0
	c1.17-1.17,3.069-1.17,4.25,0l0,0c1.17,1.181,1.17,3.08,0,4.25l0,0c-0.591,0.58-1.36,0.88-2.131,0.88l0,0
	C1335.246,1598.991,1334.477,1598.691,1333.887,1598.111z M1346.776,1585.222c-1.17-1.17-1.17-3.07,0-4.24l0,0
	c1.17-1.18,3.07-1.18,4.24,0l0,0c1.17,1.17,1.17,3.07,0,4.24l0,0c-0.58,0.59-1.351,0.88-2.12,0.88l0,0
	C1348.126,1586.102,1347.366,1585.812,1346.776,1585.222z M1359.666,1572.332c-1.17-1.17-1.17-3.07,0-4.24l0,0
	c1.17-1.17,3.07-1.17,4.24,0l0,0c1.17,1.17,1.17,3.07,0,4.24l0,0c-0.58,0.59-1.35,0.88-2.12,0.88l0,0
	C1361.017,1573.212,1360.256,1572.922,1359.666,1572.332z M1372.557,1559.441c-1.17-1.17-1.17-3.069,0-4.239l0,0
	c1.17-1.171,3.069-1.171,4.239,0l0,0c1.171,1.17,1.171,3.069,0,4.239l0,0c-0.579,0.59-1.35,0.88-2.119,0.88l0,0
	C1373.906,1560.321,1373.137,1560.031,1372.557,1559.441z M1385.446,1546.552c-1.18-1.17-1.18-3.07,0-4.24l0,0
	c1.17-1.17,3.07-1.17,4.24,0l0,0c1.17,1.17,1.17,3.07,0,4.24l0,0c-0.59,0.59-1.351,0.88-2.12,0.88l0,0
	C1386.796,1547.432,1386.026,1547.142,1385.446,1546.552z M1398.326,1533.672c-1.17-1.18-1.17-3.07,0-4.25l0,0
	c1.18-1.17,3.07-1.17,4.25,0l0,0c1.17,1.18,1.17,3.07,0,4.25l0,0c-0.59,0.58-1.359,0.87-2.12,0.87l0,0
	C1399.687,1534.542,1398.916,1534.252,1398.326,1533.672z M1411.217,1520.781c-1.171-1.17-1.171-3.069,0-4.25l0,0
	c1.17-1.17,3.069-1.17,4.25,0l0,0c1.17,1.181,1.17,3.08,0,4.25l0,0c-0.591,0.58-1.36,0.87-2.131,0.87l0,0
	C1412.576,1521.651,1411.807,1521.361,1411.217,1520.781z M1424.106,1507.892c-1.17-1.17-1.17-3.07,0-4.24l0,0
	c1.17-1.18,3.07-1.18,4.24,0l0,0c1.18,1.17,1.18,3.07,0,4.24l0,0c-0.58,0.58-1.351,0.88-2.12,0.88l0,0
	C1425.467,1508.771,1424.696,1508.472,1424.106,1507.892z M1436.996,1495.002c-1.17-1.17-1.17-3.07,0-4.24l0,0
	c1.17-1.18,3.07-1.18,4.24,0l0,0c1.17,1.17,1.17,3.07,0,4.24l0,0c-0.58,0.59-1.35,0.88-2.12,0.88l0,0
	C1438.347,1495.882,1437.586,1495.592,1436.996,1495.002z"/>
<path fill="none" stroke="#FFD042" stroke-width="6" stroke-linecap="round" stroke-linejoin="round" d="M1452,1480L1452,1480
	 M1078.242,1853.757L1078.242,1853.757"/>
<line fill="none" stroke="#FFD042" stroke-width="6" stroke-linecap="round" stroke-linejoin="round" stroke-dasharray="0,18.334" x1="1076.121" y1="1800.213" x2="1076.121" y2="1827.714"/>
<path fill="none" stroke="#FFD042" stroke-width="6" stroke-linecap="round" stroke-linejoin="round" d="M1076.121,1836.881
	L1076.121,1836.881 M1076.121,1781.879L1076.121,1781.879"/>
<line fill="none" stroke="#FFD042" stroke-width="6" stroke-linecap="round" stroke-linejoin="round" stroke-dasharray="0,18.334" x1="1125.787" y1="1855.879" x2="1098.286" y2="1855.879"/>
<path fill="none" stroke="#FFD042" stroke-width="6" stroke-linecap="round" stroke-linejoin="round" d="M1089.119,1855.879
	L1089.119,1855.879 M1144.121,1855.879L1144.121,1855.879"/>
<line fill="none" stroke="#FFD042" stroke-width="6" stroke-linecap="round" stroke-linejoin="round" stroke-dasharray="0,18.111" x1="1462" y1="1444.889" x2="1462" y2="1146.057"/>
<path fill="none" stroke="#FFD042" stroke-width="6" stroke-linecap="round" stroke-linejoin="round" d="M1462,1137L1462,1137
	 M1462,1463L1462,1463"/>
</svg>
